<svg width="24" height="24" viewBox="0 0 24 24" fill="none" xmlns="http://www.w3.org/2000/svg">
<path d="M9.01025 18.5964L9.02073 18.6469C9.30477 20.0153 10.5517 21.0003 12 21.0003C13.4483 21.0003 14.6953 20.0153 14.9793 18.6469L14.9898 18.5964" stroke="#009310" stroke-width="1.5" stroke-linejoin="round"/>
<path d="M14.4825 18H9.51738M19 13.2047L19 10C19 6.13401 15.866 3 12 3C8.13397 3 4.99996 6.13401 4.99996 10L4.99996 13.2047C4.99996 13.3994 4.9591 13.5919 4.88003 13.7699L3.62491 16.5939C3.33101 17.2551 3.81506 18 4.53872 18H19.4612C20.1849 18 20.6689 17.2551 20.375 16.5939L19.1199 13.7699C19.0408 13.5919 19 13.3994 19 13.2047Z" stroke="#202124" stroke-width="1.5" stroke-linejoin="round"/>
</svg>
